<svg width="40" height="40" viewBox="0 0 40 40" fill="none" xmlns="http://www.w3.org/2000/svg">
<rect width="40" height="40" rx="20" fill="white"/>
<path d="M25.5534 14.8072C24.5062 14.3057 23.3956 13.9487 22.2523 13.7461C22.1105 14.0094 21.944 14.3628 21.8298 14.6443C20.6177 14.455 19.3836 14.455 18.1716 14.6443C18.0443 14.3377 17.9013 14.038 17.7432 13.7461C16.5989 13.9489 15.4875 14.3069 14.44 14.8101C12.3512 18.0385 11.7854 21.1861 12.0676 24.2901C13.4545 25.3483 14.7963 25.9912 16.1163 26.4115C16.4421 25.9534 16.733 25.4654 16.9832 24.9512C16.5087 24.7664 16.0518 24.539 15.6181 24.2719C15.7323 24.1846 15.8443 24.0945 15.9527 24.0006C18.5854 25.2603 21.4458 25.2603 24.0472 24.0006C24.1563 24.0945 24.2683 24.1846 24.3818 24.2719C23.949 24.5388 23.4909 24.7672 23.0145 24.9526C23.2647 25.4654 23.5541 25.9541 23.8807 26.413C25.2021 25.9926 26.5461 25.3497 27.9316 24.2901C28.264 20.6923 27.3643 17.573 25.5534 14.8072ZM17.3425 22.3817C16.552 22.3817 15.904 21.6268 15.904 20.7083C15.904 19.789 16.5381 19.0334 17.3418 19.0334C18.1461 19.0334 18.7941 19.7875 18.7803 20.7083C18.7818 21.6268 18.1461 22.381 17.3418 22.381L17.3425 22.3817ZM22.6581 22.3817C21.8676 22.3817 21.2196 21.6268 21.2196 20.7083C21.2196 19.789 21.8538 19.0334 22.6581 19.0334C23.4618 19.0334 24.1098 19.7875 24.096 20.7083C24.096 21.6268 23.4618 22.381 22.6574 22.381L22.6581 22.3817Z" fill="#101225"/>
</svg>
