<svg width="40" height="40" viewBox="0 0 40 40" fill="none" xmlns="http://www.w3.org/2000/svg">
<rect width="40" height="40" rx="20" fill="white"/>
<path d="M26.843 13.6185C26.6532 13.4606 26.4241 13.3571 26.1801 13.3191C25.9362 13.281 25.6864 13.3098 25.4575 13.4024L13.5103 18.2259C13.2548 18.3311 13.0373 18.5114 12.8867 18.743C12.7361 18.9746 12.6595 19.2466 12.667 19.5228C12.6746 19.7989 12.7659 20.0663 12.929 20.2893C13.092 20.5124 13.3191 20.6805 13.5799 20.7715L15.9966 21.612L17.3436 26.0664C17.3619 26.1259 17.3885 26.1826 17.4225 26.2347C17.4277 26.2427 17.435 26.2487 17.4405 26.2564C17.4798 26.3113 17.5274 26.3598 17.5814 26.4003C17.5968 26.412 17.6115 26.423 17.628 26.4334C17.6913 26.4754 17.7614 26.5061 17.8351 26.5241L17.843 26.5248L17.8475 26.5267C17.8919 26.5357 17.937 26.5403 17.9823 26.5404C17.9866 26.5404 17.9905 26.5383 17.9948 26.5382C18.0631 26.537 18.1308 26.5253 18.1955 26.5033C18.2106 26.4982 18.2235 26.4896 18.2381 26.4835C18.2863 26.4635 18.3321 26.4378 18.3743 26.4071C18.4081 26.3786 18.4419 26.3501 18.4758 26.3216L20.2772 24.3327L22.964 26.4141C23.2006 26.5982 23.4917 26.6983 23.7915 26.6986C24.1056 26.6982 24.4101 26.5898 24.6538 26.3916C24.8975 26.1934 25.0656 25.9175 25.1301 25.61L27.3052 14.9323C27.3545 14.692 27.3375 14.4428 27.2561 14.2114C27.1747 13.98 27.0319 13.775 26.843 13.6185ZM18.2466 21.8243C18.1542 21.9163 18.091 22.0336 18.065 22.1615L17.8586 23.1642L17.3359 21.4354L20.0461 20.0241L18.2466 21.8243ZM23.7811 25.36L20.606 22.9004C20.4731 22.7978 20.3065 22.7489 20.1393 22.7636C19.972 22.7784 19.8165 22.8556 19.7036 22.9798L19.1267 23.6166L19.3306 22.6257L24.0526 17.9037C24.1653 17.7911 24.234 17.6419 24.2462 17.4831C24.2584 17.3243 24.2133 17.1663 24.1191 17.0379C24.0249 16.9094 23.8878 16.819 23.7326 16.7829C23.5775 16.7468 23.4145 16.7675 23.2733 16.8412L16.4964 20.3696L14.0135 19.461L25.9992 14.666L23.7811 25.36Z" fill="#101225"/>
</svg>
