<svg width="22" height="22" viewBox="0 0 22 22" fill="none" xmlns="http://www.w3.org/2000/svg">
<path d="M18.6359 3.85939C17.196 3.1698 15.669 2.67898 14.0969 2.40039C13.9019 2.76239 13.6729 3.24839 13.5159 3.63539C11.8494 3.37513 10.1525 3.37513 8.48594 3.63539C8.31088 3.21391 8.11429 2.8017 7.89693 2.40039C6.32346 2.67929 4.79538 3.17149 3.35494 3.86339C0.482935 8.30239 -0.295065 12.6304 0.0929351 16.8984C1.99994 18.3534 3.84493 19.2374 5.65993 19.8154C6.10793 19.1854 6.50794 18.5144 6.85194 17.8074C6.1994 17.5533 5.57118 17.2406 4.97494 16.8734C5.13194 16.7534 5.28593 16.6294 5.43494 16.5004C9.05494 18.2324 12.9879 18.2324 16.5649 16.5004C16.7149 16.6294 16.8689 16.7534 17.0249 16.8734C16.4299 17.2404 15.7999 17.5544 15.1449 17.8094C15.4889 18.5144 15.8869 19.1864 16.3359 19.8174C18.1529 19.2394 20.0009 18.3554 21.9059 16.8984C22.3629 11.9514 21.1259 7.66239 18.6359 3.85939ZM7.34594 14.2744C6.25894 14.2744 5.36794 13.2364 5.36794 11.9734C5.36794 10.7094 6.23993 9.67039 7.34493 9.67039C8.45094 9.67039 9.34194 10.7074 9.32294 11.9734C9.32493 13.2364 8.45094 14.2734 7.34493 14.2734L7.34594 14.2744ZM14.6549 14.2744C13.5679 14.2744 12.6769 13.2364 12.6769 11.9734C12.6769 10.7094 13.5489 9.67039 14.6549 9.67039C15.7599 9.67039 16.6509 10.7074 16.6319 11.9734C16.6319 13.2364 15.7599 14.2734 14.6539 14.2734L14.6549 14.2744Z" fill="white"/>
</svg>
