<svg width="40" height="40" viewBox="0 0 40 40" fill="none" xmlns="http://www.w3.org/2000/svg">
<rect width="40" height="40" rx="20" fill="white"/>
<path d="M23.5602 15.6407C23.4019 15.6407 23.2473 15.6876 23.1157 15.7755C22.9841 15.8634 22.8816 15.9883 22.8211 16.1345C22.7605 16.2807 22.7447 16.4415 22.7755 16.5967C22.8064 16.7519 22.8826 16.8945 22.9945 17.0063C23.1064 17.1182 23.2489 17.1944 23.4041 17.2253C23.5593 17.2561 23.7201 17.2403 23.8663 17.1798C24.0125 17.1192 24.1374 17.0167 24.2253 16.8851C24.3132 16.7535 24.3602 16.5989 24.3602 16.4407C24.3602 16.2285 24.2759 16.025 24.1258 15.875C23.9758 15.7249 23.7723 15.6407 23.5602 15.6407ZM26.6268 17.254C26.6139 16.7009 26.5103 16.1536 26.3202 15.634C26.1507 15.1894 25.8868 14.7868 25.5468 14.454C25.2167 14.1123 24.8132 13.8501 24.3668 13.6873C23.8486 13.4914 23.3007 13.3855 22.7468 13.374C22.0402 13.334 21.8135 13.334 20.0002 13.334C18.1868 13.334 17.9602 13.334 17.2535 13.374C16.6996 13.3855 16.1517 13.4914 15.6335 13.6873C15.1879 13.8518 14.7848 14.1137 14.4535 14.454C14.1118 14.7841 13.8496 15.1876 13.6868 15.634C13.4909 16.1522 13.385 16.7001 13.3735 17.254C13.3335 17.9607 13.3335 18.1873 13.3335 20.0007C13.3335 21.814 13.3335 22.0407 13.3735 22.7473C13.385 23.3012 13.4909 23.8491 13.6868 24.3673C13.8496 24.8137 14.1118 25.2172 14.4535 25.5473C14.7848 25.8876 15.1879 26.1496 15.6335 26.314C16.1517 26.5099 16.6996 26.6158 17.2535 26.6273C17.9602 26.6673 18.1868 26.6673 20.0002 26.6673C21.8135 26.6673 22.0402 26.6673 22.7468 26.6273C23.3007 26.6158 23.8486 26.5099 24.3668 26.314C24.8132 26.1512 25.2167 25.889 25.5468 25.5473C25.8883 25.2157 26.1524 24.8128 26.3202 24.3673C26.5103 23.8477 26.6139 23.3005 26.6268 22.7473C26.6268 22.0407 26.6668 21.814 26.6668 20.0007C26.6668 18.1873 26.6668 17.9607 26.6268 17.254ZM25.4268 22.6673C25.422 23.0905 25.3453 23.5098 25.2002 23.9073C25.0937 24.1974 24.9227 24.4596 24.7002 24.674C24.4839 24.8943 24.2223 25.0649 23.9335 25.174C23.536 25.3192 23.1167 25.3958 22.6935 25.4007C22.0268 25.434 21.7802 25.4407 20.0268 25.4407C18.2735 25.4407 18.0268 25.4407 17.3602 25.4007C16.9208 25.4089 16.4832 25.3412 16.0668 25.2007C15.7907 25.086 15.5411 24.9158 15.3335 24.7007C15.1122 24.4865 14.9434 24.2241 14.8402 23.934C14.6774 23.5308 14.5871 23.1019 14.5735 22.6673C14.5735 22.0007 14.5335 21.754 14.5335 20.0007C14.5335 18.2473 14.5335 18.0007 14.5735 17.334C14.5765 16.9014 14.6555 16.4726 14.8068 16.0673C14.9242 15.7859 15.1043 15.5351 15.3335 15.334C15.536 15.1048 15.7864 14.9227 16.0668 14.8007C16.4732 14.654 16.9015 14.5774 17.3335 14.574C18.0002 14.574 18.2468 14.534 20.0002 14.534C21.7535 14.534 22.0002 14.534 22.6668 14.574C23.09 14.5788 23.5093 14.6555 23.9068 14.8007C24.2098 14.9131 24.4817 15.0959 24.7002 15.334C24.9186 15.5388 25.0893 15.7891 25.2002 16.0673C25.3483 16.4733 25.425 16.9018 25.4268 17.334C25.4602 18.0007 25.4668 18.2473 25.4668 20.0007C25.4668 21.754 25.4602 22.0007 25.4268 22.6673ZM20.0002 16.5807C19.324 16.582 18.6635 16.7837 18.1019 17.1603C17.5404 17.5369 17.1031 18.0714 16.8453 18.6965C16.5874 19.3215 16.5206 20.009 16.6534 20.6719C16.7861 21.3349 17.1123 21.9437 17.5909 22.4213C18.0694 22.8989 18.6788 23.224 19.3421 23.3554C20.0053 23.4868 20.6926 23.4187 21.3171 23.1597C21.9417 22.9006 22.4754 22.4623 22.8509 21.9C23.2264 21.3377 23.4268 20.6768 23.4268 20.0007C23.4277 19.5507 23.3396 19.1051 23.1677 18.6893C22.9957 18.2735 22.7432 17.8959 22.4247 17.578C22.1063 17.2602 21.7281 17.0084 21.312 16.8373C20.8959 16.6661 20.4501 16.5789 20.0002 16.5807ZM20.0002 22.2207C19.5611 22.2207 19.1319 22.0905 18.7668 21.8465C18.4017 21.6026 18.1172 21.2559 17.9492 20.8502C17.7811 20.4446 17.7372 19.9982 17.8228 19.5676C17.9085 19.1369 18.1199 18.7413 18.4304 18.4309C18.7409 18.1204 19.1364 17.909 19.5671 17.8233C19.9977 17.7376 20.4441 17.7816 20.8497 17.9496C21.2554 18.1177 21.6021 18.4022 21.846 18.7673C22.09 19.1324 22.2202 19.5616 22.2202 20.0007C22.2202 20.2922 22.1627 20.5809 22.0512 20.8502C21.9396 21.1196 21.7761 21.3643 21.5699 21.5704C21.3638 21.7766 21.1191 21.9401 20.8497 22.0517C20.5804 22.1632 20.2917 22.2207 20.0002 22.2207Z" fill="#101225"/>
</svg>
