<svg width="40" height="40" viewBox="0 0 40 40" fill="none" xmlns="http://www.w3.org/2000/svg">
<rect width="40" height="40" rx="20" fill="white"/>
<path d="M26.6668 15.8668C26.1657 16.0842 25.6358 16.2279 25.0935 16.2935C25.6656 15.9517 26.0943 15.414 26.3002 14.7801C25.7625 15.1002 25.174 15.3257 24.5602 15.4468C24.1499 15.0019 23.6035 14.7057 23.0067 14.6047C22.4099 14.5037 21.7965 14.6037 21.2627 14.8889C20.7289 15.1742 20.3048 15.6285 20.057 16.1807C19.8092 16.7329 19.7517 17.3517 19.8935 17.9401C18.8064 17.8852 17.7431 17.6021 16.7726 17.1094C15.8021 16.6167 14.9461 15.9253 14.2602 15.0801C14.0196 15.5003 13.8932 15.976 13.8935 16.4601C13.8926 16.9097 14.003 17.3526 14.2147 17.7492C14.4264 18.1458 14.7328 18.4839 15.1068 18.7335C14.6721 18.7216 14.2468 18.605 13.8668 18.3935V18.4268C13.8701 19.0567 14.0908 19.6662 14.4917 20.1521C14.8926 20.638 15.449 20.9706 16.0668 21.0935C15.829 21.1659 15.5821 21.204 15.3335 21.2068C15.1614 21.2048 14.9898 21.1892 14.8202 21.1601C14.9961 21.702 15.3366 22.1756 15.7942 22.5149C16.2518 22.8543 16.8039 23.0425 17.3735 23.0535C16.4116 23.8103 15.2241 24.2234 14.0002 24.2268C13.7773 24.2275 13.5547 24.2142 13.3335 24.1868C14.5831 24.9936 16.0394 25.422 17.5268 25.4201C18.5533 25.4308 19.5716 25.2368 20.5222 24.8495C21.4729 24.4622 22.3368 23.8894 23.0636 23.1645C23.7904 22.4395 24.3655 21.5771 24.7552 20.6274C25.1449 19.6778 25.3415 18.66 25.3335 17.6335C25.3335 17.5201 25.3335 17.4001 25.3335 17.2801C25.8566 16.89 26.3078 16.4118 26.6668 15.8668Z" fill="#101225"/>
</svg>
