<svg width="213" height="52" viewBox="0 0 213 52" fill="none" xmlns="http://www.w3.org/2000/svg">
<path d="M10.1096 40.3265V9.16004H0V0.670248H29.2675V9.16004H19.0462V40.3265H10.1096Z" fill="white"/>
<path d="M40.5307 36.7519C37.6636 39.5446 34.2006 40.9409 30.1419 40.9409C26.0832 40.9409 22.6203 39.5446 19.7531 36.7519C16.8859 33.9219 15.4523 30.459 15.4523 26.3631C15.4523 22.2671 16.8859 18.8228 19.7531 16.0301C22.6203 13.2001 26.0832 11.7852 30.1419 11.7852C34.2006 11.7852 37.6636 13.2001 40.5307 16.0301C43.3979 18.8228 44.8315 22.2671 44.8315 26.3631C44.8315 30.459 43.3979 33.9219 40.5307 36.7519ZM25.6736 31.2223C26.8652 32.4511 28.3546 33.0655 30.1419 33.0655C31.9292 33.0655 33.4001 32.4511 34.5544 31.2223C35.7459 29.9936 36.3417 28.3738 36.3417 26.3631C36.3417 24.3523 35.7459 22.7325 34.5544 21.5038C33.4001 20.275 31.9292 19.6606 30.1419 19.6606C28.3546 19.6606 26.8652 20.275 25.6736 21.5038C24.5193 22.7325 23.9421 24.3523 23.9421 26.3631C23.9421 28.3738 24.5193 29.9936 25.6736 31.2223Z" fill="white"/>
<path d="M49.038 52H39.9338L45.7426 38.7068L34.125 12.3996H43.3409L50.2668 29.6584L57.1368 12.3996H66.4086L49.038 52Z" fill="white"/>
<path d="M58.8862 40.3265V0.670248H83.2943V9.16004H67.7669V16.3093H79.8872V24.7991H67.7669V40.3265H58.8862Z" fill="white"/>
<path d="M85.5377 40.9409C81.9258 40.9409 78.8538 39.5073 76.3218 36.6402C73.827 33.773 72.5795 30.3473 72.5795 26.3631C72.5795 22.3788 73.827 18.9531 76.3218 16.0859C78.8538 13.2188 81.9258 11.7852 85.5377 11.7852C88.7399 11.7852 91.272 12.9209 93.1338 15.1923V12.3996H101.568V40.3265H93.1338V37.5338C91.272 39.8052 88.7399 40.9409 85.5377 40.9409ZM82.8008 31.334C83.9924 32.6373 85.5377 33.2889 87.4367 33.2889C89.3357 33.2889 90.8624 32.6373 92.0167 31.334C93.2083 30.0308 93.804 28.3738 93.804 26.3631C93.804 24.3523 93.2083 22.6953 92.0167 21.3921C90.8624 20.0888 89.3357 19.4372 87.4367 19.4372C85.5377 19.4372 83.9924 20.0888 82.8008 21.3921C81.6465 22.6953 81.0693 24.3523 81.0693 26.3631C81.0693 28.3738 81.6465 30.0308 82.8008 31.334Z" fill="white"/>
<path d="M116.441 40.9968C110.446 40.9968 105.475 39.0233 101.528 35.0763C97.5806 31.1293 95.6071 26.27 95.6071 20.4984C95.6071 14.7268 97.5806 9.86753 101.528 5.92052C105.475 1.9735 110.446 0 116.441 0C120.872 0 124.912 1.32188 128.561 3.96563C132.247 6.57215 134.63 10.0165 135.71 14.2986H126.047C125.191 12.474 123.888 11.0777 122.138 10.1096C120.388 9.10419 118.489 8.60151 116.441 8.60151C112.866 8.60151 109.98 9.7372 107.783 12.0086C105.624 14.28 104.544 17.1099 104.544 20.4984C104.544 23.8869 105.624 26.7168 107.783 28.9882C109.98 31.2596 112.866 32.3953 116.441 32.3953C118.489 32.3953 120.388 31.9112 122.138 30.9431C123.888 29.9377 125.191 28.5227 126.047 26.6982H135.71C134.63 30.9803 132.247 34.4432 128.561 37.087C124.912 39.6935 120.872 40.9968 116.441 40.9968Z" fill="white"/>
<path d="M142.207 40.9409C137.888 40.9409 134.332 39.5632 131.539 36.8077C128.784 34.0523 127.406 30.5521 127.406 26.3072C127.406 22.1368 128.802 18.6738 131.595 15.9184C134.425 13.1629 137.962 11.7852 142.207 11.7852C144.255 11.7852 146.173 12.1389 147.96 12.8464C149.785 13.5539 151.386 14.5779 152.764 15.9184C154.178 17.2589 155.277 18.9903 156.059 21.1128C156.841 23.2352 157.195 25.6369 157.12 28.3179H135.616C135.765 29.8446 136.436 31.1292 137.627 32.1719C138.819 33.1772 140.494 33.6799 142.654 33.6799C143.883 33.6799 145 33.4379 146.005 32.9538C147.011 32.4325 147.681 31.7995 148.016 31.0548H156.841C155.947 33.9964 154.16 36.3795 151.479 38.2041C148.798 40.0286 145.707 40.9409 142.207 40.9409ZM141.984 18.4876C140.383 18.4876 139.042 18.8972 137.962 19.7164C136.92 20.5356 136.212 21.6155 135.84 22.956H147.793C147.383 21.4293 146.62 20.3122 145.502 19.6047C144.423 18.86 143.25 18.4876 141.984 18.4876Z" fill="white"/>
<path d="M162.186 40.9409C158.463 40.9409 155.391 40.0286 152.97 38.2041C150.587 36.3423 149.321 34.015 149.172 31.2223H158.053C158.128 32.3022 158.574 33.14 159.394 33.7358C160.213 34.2943 161.237 34.5736 162.465 34.5736C164.551 34.5736 165.593 33.9778 165.593 32.7863C165.593 32.1905 165.351 31.7436 164.867 31.4458C164.42 31.1106 163.601 30.7755 162.41 30.4404L156.768 28.9882C152.077 27.7594 149.731 24.8364 149.731 20.2191C149.731 17.7243 150.773 15.695 152.859 14.131C154.944 12.5671 157.792 11.7852 161.404 11.7852C164.607 11.7852 167.269 12.5857 169.391 14.1869C171.551 15.7508 172.743 17.9663 172.966 20.8335H164.476C164.141 19.1207 163.061 18.2642 161.237 18.2642C159.338 18.2642 158.388 18.86 158.388 20.0516C158.388 21.0942 159.338 21.8203 161.237 22.2299L166.319 23.5704C169.112 24.3151 171.123 25.3949 172.352 26.8099C173.58 28.2248 174.195 30.068 174.195 32.3394C174.195 34.9087 173.078 36.9939 170.844 38.5951C168.609 40.159 165.724 40.9409 162.186 40.9409Z" fill="white"/>
<path d="M179.301 40.3265V26.6237H180.511L187.66 37.7759V26.6237H189.131V40.3265H187.921L180.771 29.1744V40.3265H179.301Z" fill="white"/>
<path d="M192.494 40.3265V29.3792C192.494 28.8454 192.568 28.4048 192.717 28.0573C192.878 27.6973 193.089 27.4181 193.35 27.2195C193.611 27.0085 193.902 26.8595 194.225 26.7726C194.548 26.6733 194.87 26.6237 195.193 26.6237C195.739 26.6361 196.329 26.6485 196.962 26.6609C197.607 26.6733 198.265 26.692 198.935 26.7168C199.618 26.7292 200.282 26.7602 200.927 26.8099V27.9828H195.547C195.05 27.9828 194.666 28.1193 194.393 28.3924C194.12 28.6655 193.983 29.0689 193.983 29.6026V33.1586L200.108 33.2517V34.3874L193.983 34.4805V40.3265H192.494Z" fill="white"/>
<path d="M206.892 40.3265V27.9642H202.666V26.6237H212.608V27.9642H208.382V40.3265H206.892Z" fill="white"/>
</svg>
