<svg width="22" height="22" viewBox="0 0 22 22" fill="none" xmlns="http://www.w3.org/2000/svg">
<path d="M21.2647 1.4268C20.98 1.18994 20.6364 1.0347 20.2704 0.977608C19.9045 0.920517 19.5299 0.963711 19.1866 1.10259L1.26566 8.33794C0.88241 8.49563 0.556176 8.76613 0.33026 9.11356C0.104343 9.46099 -0.0105725 9.86891 0.000764965 10.2832C0.0121025 10.6974 0.149157 11.0985 0.393738 11.433C0.638319 11.7676 0.978859 12.0198 1.37016 12.1563L4.99516 13.417L7.01566 20.0987C7.04312 20.1879 7.08297 20.2729 7.13404 20.3511C7.14179 20.3631 7.15272 20.372 7.16096 20.3837C7.21996 20.466 7.29127 20.5388 7.37239 20.5994C7.39546 20.617 7.41755 20.6335 7.44221 20.6491C7.53714 20.7121 7.64228 20.7581 7.75294 20.7852L7.76478 20.7862L7.77149 20.7891C7.83802 20.8026 7.90574 20.8095 7.97364 20.8096C7.98017 20.8096 7.98597 20.8065 7.99244 20.8064C8.0949 20.8046 8.19647 20.7869 8.29353 20.754C8.31611 20.7464 8.33546 20.7335 8.35737 20.7242C8.42975 20.6942 8.49832 20.6558 8.56166 20.6096C8.61238 20.5669 8.66312 20.5242 8.71388 20.4815L11.416 17.4981L15.4463 20.6201C15.8011 20.8964 16.2379 21.0465 16.6875 21.0469C17.1587 21.0463 17.6154 20.8837 17.9809 20.5864C18.3465 20.2892 18.5987 19.8752 18.6954 19.4141L21.958 3.39751C22.032 3.03703 22.0065 2.66323 21.8844 2.3161C21.7623 1.96897 21.5481 1.66158 21.2647 1.4268ZM8.37016 13.7354C8.2315 13.8735 8.13672 14.0495 8.0977 14.2413L7.78819 15.7453L7.00413 13.1522L11.0694 11.0352L8.37016 13.7354ZM16.6719 19.0391L11.9092 15.3496C11.71 15.1957 11.46 15.1224 11.2092 15.1445C10.9583 15.1666 10.725 15.2824 10.5557 15.4688L9.69029 16.424L9.99613 14.9375L17.0791 7.85451C17.2482 7.68567 17.3512 7.46187 17.3695 7.22364C17.3878 6.9854 17.3201 6.7485 17.1788 6.55583C17.0375 6.36316 16.8319 6.22748 16.5992 6.17335C16.3664 6.11922 16.122 6.15023 15.9102 6.26076L5.74491 11.5534L2.02055 10.1905L19.999 2.99807L16.6719 19.0391Z" fill="white"/>
</svg>
